<svg xmlns="http://www.w3.org/2000/svg" xmlns:xlink="http://www.w3.org/1999/xlink" width="41.743" height="25.005" viewBox="0 0 41.743 25.005">
  <defs>
    <clipPath id="clip-path">
      <rect id="Rectangle_1" data-name="Rectangle 1" width="41.743" height="25.005" transform="translate(0 0)" fill="#27557d" stroke="#27557d" stroke-width="1"/>
    </clipPath>
    <clipPath id="clip-path-2">
      <rect id="Rectangle_2" data-name="Rectangle 2" width="14.067" height="20.765" transform="translate(0 0)" fill="#27557d"/>
    </clipPath>
  </defs>
  <g id="Groupe_38" data-name="Groupe 38" transform="translate(-828.351 -442.281)">
    <g id="Groupe_1" data-name="Groupe 1" transform="translate(828.351 442.281)" clip-path="url(#clip-path)">
      <path id="Tracé_359" data-name="Tracé 359" d="M0,0V23.625" transform="translate(20.263 0.807)" fill="#27557d" stroke="#27557d" stroke-width="1"/>
      <path id="Tracé_1" data-name="Tracé 1" d="M373.679,99.327c-.465,0-.843-.187-.843-.919a2.839,2.839,0,0,1,.843-1.575,3.267,3.267,0,0,1,.843,1.575c0,.681-.377.919-.843.919m.395-3.228a.55.55,0,0,0-.789,0,4.144,4.144,0,0,0-1.14,2.254,1.54,1.54,0,1,0,3.07,0,4.144,4.144,0,0,0-1.141-2.254" transform="translate(-363.088 -75.181)" fill="#27557d"/>
      <path id="Tracé_2" data-name="Tracé 2" d="M373.679,99.327c-.465,0-.843-.187-.843-.919a2.839,2.839,0,0,1,.843-1.575,3.267,3.267,0,0,1,.843,1.575c0,.681-.377.919-.843.919m.395-3.228a.55.55,0,0,0-.789,0,4.144,4.144,0,0,0-1.14,2.254,1.54,1.54,0,1,0,3.07,0,4.144,4.144,0,0,0-1.141-2.254" transform="translate(-363.088 -75.181)" fill="#27557d"/>
      <path id="Tracé_3" data-name="Tracé 3" d="M373.679,99.327c-.465,0-.843-.187-.843-.919a2.839,2.839,0,0,1,.843-1.575,3.267,3.267,0,0,1,.843,1.575C374.521,99.09,374.144,99.327,373.679,99.327Zm.395-3.228a.55.55,0,0,0-.789,0,4.144,4.144,0,0,0-1.14,2.254,1.54,1.54,0,1,0,3.07,0A4.144,4.144,0,0,0,374.073,96.1Z" transform="translate(-363.088 -75.181)" fill="#27557d"/>
      <path id="Tracé_4" data-name="Tracé 4" d="M367.56,70h-.029c-2.1.058-3.044,2.744-3.144,3.05-.047.14-.164.559-.676,2.394-.507,1.818-1.2,4.307-1.457,5.139a7.947,7.947,0,0,1-.86,1.812c-.29.5-.65,1.12-1.054,1.982a1.051,1.051,0,0,0-.088.284,3.517,3.517,0,0,0,.7,2.963,3.886,3.886,0,0,0,2.874,1.216,2.631,2.631,0,0,0,1.06-.186,5.248,5.248,0,0,0,.789.563,3.59,3.59,0,0,0,1.774.517,4.556,4.556,0,0,0,1.893-.48,1.07,1.07,0,0,0,.269-.176c.263-.236.5-.431.705-.592a4.947,4.947,0,0,0,1.33.194,3.1,3.1,0,0,0,1.275-.251c.026-.011.051-.024.076-.038,1.856-1.02,2.269-3.127,1.051-5.368-.241-.443-.427-.735-.591-.994a9.185,9.185,0,0,1-1.1-2.422c-.9-3.544-1.806-6.507-1.815-6.536-.157-.512-1.036-3.07-2.983-3.07m0,1.06c1.26,0,1.969,2.321,1.969,2.321s.905,2.95,1.811,6.529a13.91,13.91,0,0,0,1.772,3.619c.748,1.376.946,3.068-.63,3.933a2.067,2.067,0,0,1-.84.158,3.853,3.853,0,0,1-1.051-.158l1.221-.747a.393.393,0,0,0-.221-.048c-.342,0-1.13.221-2.693,1.621a3.554,3.554,0,0,1-1.454.386,2.535,2.535,0,0,1-1.263-.386c-.727-.4-1.757-1.639-2.5-1.639a.586.586,0,0,0-.178.026s-.349.308.867.747c.446.161.073.357-.549.357A2.369,2.369,0,0,1,361.3,84.83c.906-1.928,1.536-2.518,1.969-3.934s2.055-7.321,2.126-7.513c0,0,.748-2.281,2.166-2.321" transform="translate(-360.104 -68.711)" fill="#27557d"/>
      <path id="Tracé_5" data-name="Tracé 5" d="M367.56,70h-.029c-2.1.058-3.044,2.744-3.144,3.05-.047.14-.164.559-.676,2.394-.507,1.818-1.2,4.307-1.457,5.139a7.947,7.947,0,0,1-.86,1.812c-.29.5-.65,1.12-1.054,1.982a1.051,1.051,0,0,0-.088.284,3.517,3.517,0,0,0,.7,2.963,3.886,3.886,0,0,0,2.874,1.216,2.631,2.631,0,0,0,1.06-.186,5.248,5.248,0,0,0,.789.563,3.59,3.59,0,0,0,1.774.517,4.556,4.556,0,0,0,1.893-.48,1.07,1.07,0,0,0,.269-.176c.263-.236.5-.431.705-.592a4.947,4.947,0,0,0,1.33.194,3.1,3.1,0,0,0,1.275-.251c.026-.011.051-.024.076-.038,1.856-1.02,2.269-3.127,1.051-5.368-.241-.443-.427-.735-.591-.994a9.185,9.185,0,0,1-1.1-2.422c-.9-3.544-1.806-6.507-1.815-6.536-.157-.512-1.036-3.07-2.983-3.07m0,1.06c1.26,0,1.969,2.321,1.969,2.321s.905,2.95,1.811,6.529a13.91,13.91,0,0,0,1.772,3.619c.748,1.376.946,3.068-.63,3.933a2.067,2.067,0,0,1-.84.158,3.853,3.853,0,0,1-1.051-.158l1.221-.747a.393.393,0,0,0-.221-.048c-.342,0-1.13.221-2.693,1.621a3.554,3.554,0,0,1-1.454.386,2.535,2.535,0,0,1-1.263-.386c-.727-.4-1.757-1.639-2.5-1.639a.586.586,0,0,0-.178.026s-.349.308.867.747c.446.161.073.357-.549.357A2.369,2.369,0,0,1,361.3,84.83c.906-1.928,1.536-2.518,1.969-3.934s2.055-7.321,2.126-7.513c0,0,.748-2.281,2.166-2.321" transform="translate(-360.104 -68.711)" fill="#27557d"/>
    </g>
    <g id="Groupe_2" data-name="Groupe 2" transform="translate(853.171 444.401)" clip-path="url(#clip-path-2)">
      <path id="Tracé_6" data-name="Tracé 6" d="M408.454,76.805a5.608,5.608,0,0,0-3.879-3.088c-3.158-.656-5.561-.219-7.146,1.287-2.69,2.553-2.013,7.209-1.982,7.407a.359.359,0,0,0,.406.3.35.35,0,0,0,.3-.4c-.007-.045-.649-4.488,1.77-6.785,1.409-1.337,3.6-1.708,6.512-1.1a4.885,4.885,0,0,1,3.378,2.693c.948,2.047.479,4.9-1.353,8.246a9.311,9.311,0,0,0-.888,2.488,14.4,14.4,0,0,1-1.2,3.386c-.437.872-1.922,1.479-3.392,1.377a3.151,3.151,0,0,1-2.907-2.019c-.687-1.2-1.554-3.4-.972-4.19.34-.455,1.18-.375,1.815-.233a3.538,3.538,0,0,1,.447,1.2c.264,1,.576,2.109,1.388,2.051.052,0,1.251.1,1.732-.711.381-.642.18-1.568-.615-2.827.621-.6,2.2-2.329,1.454-3.855a2.284,2.284,0,0,0-1.936-1.141h-.025a2.286,2.286,0,0,0-1.891,1.176,5.3,5.3,0,0,1-.134-3.5,2.369,2.369,0,0,1,1.554-1.314,4.161,4.161,0,0,1,3.583.662c.9.837,1.114,2.293.625,4.334a.364.364,0,0,0,.264.43.356.356,0,0,0,.43-.264c.552-2.306.271-3.993-.832-5.02a4.871,4.871,0,0,0-4.285-.819,3.088,3.088,0,0,0-1.991,1.707c-.867,1.971.347,4.663.4,4.773a.35.35,0,0,0,.323.208.359.359,0,0,0,.322-.2c.434-.947,1-1.451,1.638-1.461h.017a1.592,1.592,0,0,1,1.3.741c.548,1.118-.9,2.7-1.509,3.214a.361.361,0,0,0-.066.468c.989,1.472.9,2.088.764,2.325-.249.42-1.048.368-1.117.368-.3-.008-.552-.944-.7-1.527-.226-.85-.423-1.586-.965-1.71-1.241-.281-2.1-.111-2.553.5-1.047,1.416.718,4.6.9,4.9a3.72,3.72,0,0,0,3.507,2.436c.128.009.253.014.374.014a4.124,4.124,0,0,0,3.7-1.783,14.978,14.978,0,0,0,1.263-3.536,8.631,8.631,0,0,1,.819-2.313c1.971-3.6,2.436-6.593,1.374-8.889" transform="translate(-395.35 -72.839)" fill="#27557d"/>
      <path id="Tracé_7" data-name="Tracé 7" d="M408.454,76.805a5.608,5.608,0,0,0-3.879-3.088c-3.158-.656-5.561-.219-7.146,1.287-2.69,2.553-2.013,7.209-1.982,7.407a.359.359,0,0,0,.406.3.35.35,0,0,0,.3-.4c-.007-.045-.649-4.488,1.77-6.785,1.409-1.337,3.6-1.708,6.512-1.1a4.885,4.885,0,0,1,3.378,2.693c.948,2.047.479,4.9-1.353,8.246a9.311,9.311,0,0,0-.888,2.488,14.4,14.4,0,0,1-1.2,3.386c-.437.872-1.922,1.479-3.392,1.377a3.151,3.151,0,0,1-2.907-2.019c-.687-1.2-1.554-3.4-.972-4.19.34-.455,1.18-.375,1.815-.233a3.538,3.538,0,0,1,.447,1.2c.264,1,.576,2.109,1.388,2.051.052,0,1.251.1,1.732-.711.381-.642.18-1.568-.615-2.827.621-.6,2.2-2.329,1.454-3.855a2.284,2.284,0,0,0-1.936-1.141h-.025a2.286,2.286,0,0,0-1.891,1.176,5.3,5.3,0,0,1-.134-3.5,2.369,2.369,0,0,1,1.554-1.314,4.161,4.161,0,0,1,3.583.662c.9.837,1.114,2.293.625,4.334a.364.364,0,0,0,.264.43.356.356,0,0,0,.43-.264c.552-2.306.271-3.993-.832-5.02a4.871,4.871,0,0,0-4.285-.819,3.088,3.088,0,0,0-1.991,1.707c-.867,1.971.347,4.663.4,4.773a.35.35,0,0,0,.323.208.359.359,0,0,0,.322-.2c.434-.947,1-1.451,1.638-1.461h.017a1.592,1.592,0,0,1,1.3.741c.548,1.118-.9,2.7-1.509,3.214a.361.361,0,0,0-.066.468c.989,1.472.9,2.088.764,2.325-.249.42-1.048.368-1.117.368-.3-.008-.552-.944-.7-1.527-.226-.85-.423-1.586-.965-1.71-1.241-.281-2.1-.111-2.553.5-1.047,1.416.718,4.6.9,4.9a3.72,3.72,0,0,0,3.507,2.436c.128.009.253.014.374.014a4.124,4.124,0,0,0,3.7-1.783,14.978,14.978,0,0,0,1.263-3.536,8.631,8.631,0,0,1,.819-2.313c1.971-3.6,2.436-6.593,1.374-8.889" transform="translate(-395.35 -72.839)" fill="#27557d"/>
      <path id="Tracé_8" data-name="Tracé 8" d="M408.454,76.805a5.608,5.608,0,0,0-3.879-3.088c-3.158-.656-5.561-.219-7.146,1.287-2.69,2.553-2.013,7.209-1.982,7.407a.359.359,0,0,0,.406.3.35.35,0,0,0,.3-.4c-.007-.045-.649-4.488,1.77-6.785,1.409-1.337,3.6-1.708,6.512-1.1a4.885,4.885,0,0,1,3.378,2.693c.948,2.047.479,4.9-1.353,8.246a9.311,9.311,0,0,0-.888,2.488,14.4,14.4,0,0,1-1.2,3.386c-.437.872-1.922,1.479-3.392,1.377a3.151,3.151,0,0,1-2.907-2.019c-.687-1.2-1.554-3.4-.972-4.19.34-.455,1.18-.375,1.815-.233a3.538,3.538,0,0,1,.447,1.2c.264,1,.576,2.109,1.388,2.051.052,0,1.251.1,1.732-.711.381-.642.18-1.568-.615-2.827.621-.6,2.2-2.329,1.454-3.855a2.284,2.284,0,0,0-1.936-1.141h-.025a2.286,2.286,0,0,0-1.891,1.176,5.3,5.3,0,0,1-.134-3.5,2.369,2.369,0,0,1,1.554-1.314,4.161,4.161,0,0,1,3.583.662c.9.837,1.114,2.293.625,4.334a.364.364,0,0,0,.264.43.356.356,0,0,0,.43-.264c.552-2.306.271-3.993-.832-5.02a4.871,4.871,0,0,0-4.285-.819,3.088,3.088,0,0,0-1.991,1.707c-.867,1.971.347,4.663.4,4.773a.35.35,0,0,0,.323.208.359.359,0,0,0,.322-.2c.434-.947,1-1.451,1.638-1.461h.017a1.592,1.592,0,0,1,1.3.741c.548,1.118-.9,2.7-1.509,3.214a.361.361,0,0,0-.066.468c.989,1.472.9,2.088.764,2.325-.249.42-1.048.368-1.117.368-.3-.008-.552-.944-.7-1.527-.226-.85-.423-1.586-.965-1.71-1.241-.281-2.1-.111-2.553.5-1.047,1.416.718,4.6.9,4.9a3.72,3.72,0,0,0,3.507,2.436c.128.009.253.014.374.014a4.124,4.124,0,0,0,3.7-1.783,14.978,14.978,0,0,0,1.263-3.536,8.631,8.631,0,0,1,.819-2.313C409.051,82.093,409.516,79.1,408.454,76.805Z" transform="translate(-395.35 -72.839)" fill="#27557d"/>
    </g>
  </g>
</svg>
