<svg xmlns="http://www.w3.org/2000/svg" width="33.834" height="27.069" viewBox="0 0 33.834 27.069">
  <g id="Groupe_41" data-name="Groupe 41" transform="translate(-1030.882 -313.707)">
    <g id="Groupe_7" data-name="Groupe 7" transform="translate(890.181 171.528)">
      <path id="Tracé_314" data-name="Tracé 314" d="M157.618,171.38a6.212,6.212,0,0,1-6.178-5.639H140.7v-1.128h11.842v.563a5.075,5.075,0,1,0,10.15,0v-.563h11.842v1.128H163.8a6.212,6.212,0,0,1-6.178,5.639" transform="translate(0 -4.951)" fill="#27557d"/>
      <path id="Tracé_315" data-name="Tracé 315" d="M163.576,146.262c-1.718,3.6-4.285,9.282-4.92,12.394a6.34,6.34,0,0,0-.185,1.5v.072a2.82,2.82,0,0,0,5.639,0,28.235,28.235,0,0,0-.63-3.8c-.592-2.958-.273-7.173.1-10.165m-2.285,17.912a3.952,3.952,0,0,1-3.947-3.947v-.067a7.352,7.352,0,0,1,.208-1.729c1-4.914,6.39-15.493,6.62-15.941a.564.564,0,0,1,1.057.36c-.016.086-1.59,8.62-.642,13.357a30.126,30.126,0,0,1,.651,4.021,3.952,3.952,0,0,1-3.947,3.947" transform="translate(-3.673)" fill="#27557d"/>
      <path id="Tracé_316" data-name="Tracé 316" d="M151.076,168.635a.564.564,0,1,0,.563.563.563.563,0,0,0-.563-.563m0,2.255a1.692,1.692,0,1,1,1.692-1.692,1.692,1.692,0,0,1-1.692,1.692" transform="translate(-1.916 -5.59)" fill="#27557d"/>
      <path id="Tracé_317" data-name="Tracé 317" d="M144.4,170.083a1.128,1.128,0,1,0,1.128,1.128,1.128,1.128,0,0,0-1.128-1.128m0,3.383a2.255,2.255,0,1,1,2.255-2.255,2.254,2.254,0,0,1-2.255,2.255" transform="translate(-0.319 -5.909)" fill="#27557d"/>
      <path id="Tracé_318" data-name="Tracé 318" d="M179.137,170.083a1.128,1.128,0,1,0,1.128,1.128,1.128,1.128,0,0,0-1.128-1.128m0,3.383a2.255,2.255,0,1,1,2.255-2.255,2.254,2.254,0,0,1-2.255,2.255" transform="translate(-7.985 -5.909)" fill="#27557d"/>
      <path id="Tracé_319" data-name="Tracé 319" d="M172.784,168.635a.564.564,0,1,0,.563.563.563.563,0,0,0-.563-.563m0,2.255a1.692,1.692,0,1,1,1.692-1.692,1.692,1.692,0,0,1-1.692,1.692" transform="translate(-6.707 -5.59)" fill="#27557d"/>
      <path id="Tracé_320" data-name="Tracé 320" d="M155.417,173.7a.564.564,0,1,0,.563.563.563.563,0,0,0-.563-.563m0,2.255a1.692,1.692,0,1,1,1.692-1.692,1.692,1.692,0,0,1-1.692,1.692" transform="translate(-2.874 -6.708)" fill="#27557d"/>
      <path id="Tracé_321" data-name="Tracé 321" d="M168.443,173.7a.564.564,0,1,0,.563.563.563.563,0,0,0-.563-.563m0,2.255a1.692,1.692,0,1,1,1.692-1.692,1.692,1.692,0,0,1-1.692,1.692" transform="translate(-5.749 -6.708)" fill="#27557d"/>
    </g>
  </g>
</svg>
