<svg xmlns="http://www.w3.org/2000/svg" xmlns:xlink="http://www.w3.org/1999/xlink" width="34.993" height="34.902" viewBox="0 0 34.993 34.902">
  <defs>
    <clipPath id="clip-path">
      <rect id="Rectangle_3" data-name="Rectangle 3" width="11.89" height="13.7" transform="translate(107.45 32.64)" fill="none"/>
    </clipPath>
  </defs>
  <g id="Groupe_34" data-name="Groupe 34" transform="translate(-805.98 -494.238)">
    <path id="Tracé_348" data-name="Tracé 348" d="M113,24.32s-.02-.02-.03-.02c-2.62-1.9-3.19-6.31-3.2-6.38a.72.72,0,0,0-1.43.17c.03.2.61,4.9,3.59,7.23a6.827,6.827,0,0,1-.56,1.18c-.1.18-.18.33-.23.44,0,.02-.02.04-.02.05-.14.41-.28.81-.42,1.21a15.523,15.523,0,0,1-1.75,3.98,15.32,15.32,0,0,1-3.31,3.54,13.72,13.72,0,0,1-2.19,1.14,18.449,18.449,0,0,0-2.17,1.1,9.423,9.423,0,0,0-1.08.8,4.343,4.343,0,0,1-2.14,1.17c-.14,0-.26.03-.39.04a5.6,5.6,0,0,0-2.59.68c-3.2,1.89-3.13,6.23-3.09,8.32a.715.715,0,0,0,.72.71h0a.717.717,0,0,0,.71-.73h0c-.06-2.93.19-5.79,2.36-7.06a4.363,4.363,0,0,1,1.99-.48c.14,0,.27-.03.41-.04a5.574,5.574,0,0,0,2.91-1.47,8.31,8.31,0,0,1,.95-.7,12.764,12.764,0,0,1,1.99-1,14.787,14.787,0,0,0,2.42-1.27,17.682,17.682,0,0,0,3.67-3.9,16.973,16.973,0,0,0,1.94-4.35c.13-.38.26-.77.4-1.16.04-.06.1-.19.17-.31.51-.93,1.22-2.2.37-2.88Z" transform="translate(714 478)" fill="#27557d"/>
    <path id="Tracé_349" data-name="Tracé 349" d="M125.32,26.67a8.916,8.916,0,0,0-6.89-4.83h-.04a4.522,4.522,0,0,0-.51-.02,1.634,1.634,0,0,1-.82-.12h-.02c-.58-.33-2.85-2.94-2.98-4.79a.722.722,0,1,0-1.44.1c.15,2.4,2.7,5.37,3.7,5.95a3,3,0,0,0,1.54.32,2.748,2.748,0,0,1,.41.02,7.369,7.369,0,0,1,5.78,4.09,14.666,14.666,0,0,1,1.49,7.32c-.28,6.9-3.69,11.91-9.62,14.1-1.68.63-7.52,1.91-12.23-.53h0a7.5,7.5,0,0,1-2.53-2.29v-.02c-.69-.91-1.61-2.17-3.42-1.45-2.01.76-2.01,3.68-2.01,4.91a.72.72,0,1,0,1.44,0c0-.87,0-3.15,1.08-3.57h0c.71-.28.98-.05,1.73.96l.02.02h0a8.636,8.636,0,0,0,3.03,2.71,15.227,15.227,0,0,0,7.08,1.59c.37,0,.74,0,1.12-.03a18.886,18.886,0,0,0,5.18-.97,15.464,15.464,0,0,0,7.67-5.92,18.042,18.042,0,0,0,2.88-9.48,16.252,16.252,0,0,0-1.65-8.06Z" transform="translate(714 478)" fill="#27557d"/>
    <g id="Groupe_12" data-name="Groupe 12" transform="translate(714 478)" clip-path="url(#clip-path)">
      <path id="Tracé_350" data-name="Tracé 350" d="M110.79,46.33a3.49,3.49,0,0,1,.27-4.01,6.382,6.382,0,0,0,.97-2.23,2.624,2.624,0,0,1,.36,2.01,5.073,5.073,0,0,0,1.11-3.8,6.557,6.557,0,0,1,2.05,8.03c7.38-4.18,1.84-10.43.87-11.13a2.287,2.287,0,0,1-.27,2.47c-1.1-4.17-3.82-5.03-3.82-5.03.32,2.15-1.17,4.51-2.6,6.26a4.545,4.545,0,0,0-.56-2.27c-.1,1.56-1.29,2.83-1.62,4.39-.44,2.12.33,3.66,3.23,5.3h0Z" fill="#27557d"/>
    </g>
  </g>
</svg>
