<svg xmlns="http://www.w3.org/2000/svg" width="33.308" height="36.205" viewBox="0 0 33.308 36.205">
  <g id="Groupe_40" data-name="Groupe 40" transform="translate(-874.202 -270.105)">
    <g id="Groupe_25" data-name="Groupe 25" transform="translate(-9)">
      <g id="Groupe_28" data-name="Groupe 28" transform="translate(-174.853 -245.527)">
        <path id="Tracé_12" data-name="Tracé 12" d="M611.014,162.646l-3.311,2.171a.488.488,0,0,0-.22.413v.242c0,2.795,0,5-1.257,6.114a6.382,6.382,0,0,1-3.52,1.005c-.323.03-.626.058-.891.1a13.036,13.036,0,0,0-1.339.244,2.219,2.219,0,0,0-1.641,2.129v1.407h-7.7V143.428l.1-.018c5.469-.945,9.62-.276,12.337,1.99,1.35,1.124,3.616,3.775,3.616,8.9a3.684,3.684,0,0,0,.512,1.952l3.442,5.8a.463.463,0,0,1-.123.587l0,0Zm1.191-1.227q-1.711-2.886-3.424-5.773v-.091a2,2,0,0,1-.361-1.25,15.887,15.887,0,0,0-.634-4.479,10.912,10.912,0,0,0-3.42-5.369c-3.1-2.589-7.761-3.318-13.852-2.167a.745.745,0,0,0-.609.733V176.96a.767.767,0,0,0,.752.751h8.659a.756.756,0,0,0,.755-.749v-1.9a.96.96,0,0,1,.721-.93c.314-.083.689-.141,1.086-.2l.123-.019c4.86-.286,6.585-1.035,6.71-8.276l2.994-1.958.057-.037A1.738,1.738,0,0,0,612.205,161.419Z" transform="translate(468.275 374)" fill="#27557d" stroke="#fff" stroke-miterlimit="10" stroke-width="0.25"/>
        <path id="Tracé_13" data-name="Tracé 13" d="M611.975,169.2a.835.835,0,1,1,.83-.835.829.829,0,0,1-.83.835m0-2.9a2.071,2.071,0,1,0,2.058,2.071,2.065,2.065,0,0,0-2.058-2.071" transform="translate(468.275 374)" fill="#27557d"/>
        <path id="Tracé_14" data-name="Tracé 14" d="M616.5,171.906a.835.835,0,1,1,.83-.835.829.829,0,0,1-.83.835m0-2.9a2.071,2.071,0,1,0,2.058,2.071,2.065,2.065,0,0,0-2.058-2.071" transform="translate(468.275 374)" fill="#27557d"/>
        <path id="Tracé_15" data-name="Tracé 15" d="M621.029,175.443a.835.835,0,1,1,.83-.835.829.829,0,0,1-.83.835m0-2.9a2.071,2.071,0,1,0,2.058,2.071,2.065,2.065,0,0,0-2.058-2.071" transform="translate(468.275 374)" fill="#27557d"/>
        <path id="Tracé_16" data-name="Tracé 16" d="M621.03,170.022a.835.835,0,1,1,.83-.835.829.829,0,0,1-.83.835m0-2.9a2.071,2.071,0,1,0,2.058,2.071,2.065,2.065,0,0,0-2.058-2.071" transform="translate(468.275 374)" fill="#27557d"/>
        <path id="Tracé_17" data-name="Tracé 17" d="M621.03,164.756a.835.835,0,1,1,.83-.835.829.829,0,0,1-.83.835m0-2.9a2.071,2.071,0,1,0,2.058,2.071,2.065,2.065,0,0,0-2.058-2.071" transform="translate(468.275 374)" fill="#27557d"/>
        <path id="Tracé_18" data-name="Tracé 18" d="M616.5,166.485a.835.835,0,1,1,.83-.835.829.829,0,0,1-.83.835m0-2.9a2.071,2.071,0,1,0,2.058,2.071,2.065,2.065,0,0,0-2.058-2.071" transform="translate(468.275 374)" fill="#27557d"/>
      </g>
    </g>
  </g>
</svg>
