<svg xmlns="http://www.w3.org/2000/svg" width="22.829" height="37.948" viewBox="0 0 22.829 37.948">
  <g id="Groupe_31" data-name="Groupe 31" transform="translate(-448.795 -269.224)">
    <g id="Groupe_11" data-name="Groupe 11" transform="translate(449.371 269.823)">
      <path id="Tracé_347" data-name="Tracé 347" d="M316.2,178.151a8.853,8.853,0,0,0,5.83-2.207v-1.686a6.405,6.405,0,0,1,3.411-.844,1.546,1.546,0,1,0,0-3.091h-2.463s-.095-5.154-1.834-3.12c.024,1.65-2.143,2.436-4.507,2.509h-.874c-2.364-.073-4.531-.859-4.507-2.509-1.739-2.034-1.834,3.12-1.834,3.12h-2.463a1.546,1.546,0,1,0,0,3.091,6.405,6.405,0,0,1,3.411.844v1.686a8.853,8.853,0,0,0,5.83,2.207m0-8.2a8.846,8.846,0,0,0,5.83-2.206v-1.686a6.41,6.41,0,0,1,3.411-.843,1.547,1.547,0,1,0,0-3.092h-2.463s-.095-5.153-1.834-3.119c.024,1.65-2.143,2.436-4.507,2.51h-.874c-2.364-.074-4.531-.86-4.507-2.51-1.739-2.034-1.834,3.119-1.834,3.119h-2.463a1.547,1.547,0,1,0,0,3.092,6.41,6.41,0,0,1,3.411.843v1.686a8.846,8.846,0,0,0,5.83,2.206m0-8.489a8.848,8.848,0,0,0,5.83-2.207v-1.686a6.411,6.411,0,0,1,3.411-.843,1.547,1.547,0,1,0,0-3.092h-2.463s-.095-5.154-1.834-3.12c.024,1.651-2.143,2.436-4.507,2.51h-.874c-2.364-.074-4.531-.859-4.507-2.51-1.739-2.034-1.834,3.12-1.834,3.12h-2.463a1.547,1.547,0,1,0,0,3.092,6.411,6.411,0,0,1,3.411.843v1.686a8.847,8.847,0,0,0,5.83,2.207m0-8.659a8.851,8.851,0,0,0,5.83-2.206v-1.687a6.411,6.411,0,0,1,3.411-.843,1.547,1.547,0,1,0,0-3.092h-2.463s-.095-5.153-1.834-3.119c.024,1.65-2.143,2.435-4.507,2.509h-.874c-2.364-.074-4.531-.859-4.507-2.509-1.739-2.034-1.834,3.119-1.834,3.119h-2.463a1.547,1.547,0,1,0,0,3.092,6.411,6.411,0,0,1,3.411.843v1.687a8.851,8.851,0,0,0,5.83,2.206" transform="translate(-305.361 -141.377)" fill="#27557d" stroke="#fff" stroke-miterlimit="10" stroke-width="1.152"/>
    </g>
  </g>
</svg>
