<svg xmlns="http://www.w3.org/2000/svg" width="32.14" height="25.198" viewBox="0 0 32.14 25.198">
  <g id="Groupe_39" data-name="Groupe 39" transform="translate(-868.616 -275.972)">
    <g id="Groupe_25" data-name="Groupe 25" transform="translate(-9)">
      <g id="Groupe_4" data-name="Groupe 4" transform="translate(-27.468 -246.043)">
        <path id="Tracé_9" data-name="Tracé 9" d="M468.76,158.052c-.241-.4-5.861-10.037-15.886-10.037s-15.645,9.636-15.886,10.037a1.339,1.339,0,0,0,0,1.338c.241.4,5.862,10.037,15.886,10.037a15.274,15.274,0,0,0,2.931-.281l-.249-1.425a15.5,15.5,0,0,1-2.682.281c-7.067,0-12.984-7.247-14.363-9.281,1.338-2.034,7.284-9.2,14.363-9.2s13.066,7.17,14.444,9.2c-.415.625-1.363,2.056-1.84,2.635l1.233.9a21.381,21.381,0,0,0,2.075-2.877,1.339,1.339,0,0,0-.027-1.325" transform="translate(468.275 374)" fill="#27557d"/>
        <path id="Tracé_10" data-name="Tracé 10" d="M468.461,165.339a1.654,1.654,0,0,0-2.283,0,13.189,13.189,0,0,0-3.2,6.337,4.191,4.191,0,0,0,4.344,4.8,4.011,4.011,0,0,0,4.168-4.707,13.61,13.61,0,0,0-3.027-6.429m-1.141,9.711a2.85,2.85,0,0,1-2.851-2.851c.433-1.771,1.593-4.886,2.851-6.136,1.259,1.249,2.425,4.346,2.85,6.136a2.85,2.85,0,0,1-2.85,2.851" transform="translate(463.22 370.738)" fill="#27557d"/>
        <path id="Tracé_11" data-name="Tracé 11" d="M461.637,159.431a5.509,5.509,0,1,1-5.509-5.509A5.509,5.509,0,0,1,461.637,159.431Z" transform="translate(465.604 372.858)" fill="#27557d" stroke="#fff" stroke-miterlimit="10" stroke-width="1.612"/>
      </g>
    </g>
  </g>
</svg>
