<svg xmlns="http://www.w3.org/2000/svg" width="32.204" height="35.895" viewBox="0 0 32.204 35.895">
  <g id="Groupe_32" data-name="Groupe 32" transform="translate(-445.961 -270.324)">
    <g id="Groupe_16" data-name="Groupe 16" transform="translate(-104 -235.864)">
      <g id="Groupe_8" data-name="Groupe 8" transform="translate(564.277 506.188)">
        <path id="Tracé_322" data-name="Tracé 322" d="M606.492,158.172l-2.6,1.706a.383.383,0,0,0-.173.325v.19c0,2.2,0,3.93-.988,4.8a5.015,5.015,0,0,1-2.766.79c-.254.024-.492.046-.7.075a10.251,10.251,0,0,0-1.052.192,1.744,1.744,0,0,0-1.289,1.673v1.106h-6.051V143.071l.082-.014c4.3-.743,7.559-.217,9.694,1.564,1.061.883,2.841,2.966,2.841,6.991a2.9,2.9,0,0,0,.4,1.534l2.7,4.561a.364.364,0,0,1-.1.461l0,0Zm.936-.964q-1.345-2.268-2.69-4.536V152.6a1.569,1.569,0,0,1-.284-.982,12.484,12.484,0,0,0-.5-3.519,8.574,8.574,0,0,0-2.687-4.219c-2.437-2.034-6.1-2.607-10.884-1.7a.585.585,0,0,0-.478.576v26.666a.6.6,0,0,0,.591.59h6.8a.594.594,0,0,0,.593-.589v-1.489a.755.755,0,0,1,.567-.731c.247-.065.541-.111.853-.16l.1-.015c3.819-.225,5.174-.813,5.272-6.5l2.353-1.539.045-.029A1.365,1.365,0,0,0,607.427,157.207Z" transform="translate(-589.905 -134.239)" fill="#27557d" stroke="#fff" stroke-miterlimit="10" stroke-width="0.25"/>
        <path id="Tracé_323" data-name="Tracé 323" d="M23.865,147.984a.8.8,0,0,1,0,1.132l-.732.732.8.8.732-.732a1.934,1.934,0,0,0,0-2.734l-.332-.332a.8.8,0,0,1,0-1.131l.733-.732-.8-.8-.731.731a1.934,1.934,0,0,0,0,2.734Z" transform="translate(-19.005 -144.188)" fill="#27557d"/>
        <path id="Tracé_324" data-name="Tracé 324" d="M18.822,147.984a.8.8,0,0,1,0,1.132l-.732.732.8.8.732-.732a1.934,1.934,0,0,0,0-2.734l-.332-.332a.8.8,0,0,1,0-1.131l.732-.732-.8-.8-.732.731a1.934,1.934,0,0,0,0,2.734Z" transform="translate(-17.925 -144.188)" fill="#27557d"/>
        <path id="Tracé_325" data-name="Tracé 325" d="M28.907,147.984a.8.8,0,0,1,0,1.132l-.732.732.8.8.732-.732a1.934,1.934,0,0,0,0-2.734l-.332-.332a.8.8,0,0,1,0-1.131l.732-.732-.8-.8-.732.731a1.934,1.934,0,0,0,0,2.734Z" transform="translate(-20.086 -144.188)" fill="#27557d"/>
      </g>
      <g id="Groupe_9" data-name="Groupe 9" transform="translate(549.961 506.188)">
        <path id="Tracé_326" data-name="Tracé 326" d="M5.872,172.7a2.982,2.982,0,0,1,2.371,2.92V179.2a.592.592,0,1,0,1.185,0V175.62A2.982,2.982,0,0,1,11.8,172.7V149.388a2.963,2.963,0,1,0-5.927,0Zm2.963,8.286A1.785,1.785,0,0,1,7.057,179.2V175.62a1.785,1.785,0,0,0-1.778-1.788.6.6,0,0,1-.593-.6V149.388a4.148,4.148,0,1,1,8.3,0v23.847a.594.594,0,0,1-.592.6,1.785,1.785,0,0,0-1.778,1.788V179.2a1.785,1.785,0,0,1-1.778,1.789" transform="translate(-4.686 -145.216)" fill="#27557d"/>
        <path id="Tracé_327" data-name="Tracé 327" d="M8.319,150.389h.93v-.937h-.93Zm1.65,1.193H7.6a.467.467,0,0,1-.465-.469v-2.384a.467.467,0,0,1,.465-.469H9.969a.467.467,0,0,1,.465.469v2.384a.467.467,0,0,1-.465.469" transform="translate(-4.634 -145.152)" fill="#27557d"/>
        <path id="Tracé_328" data-name="Tracé 328" d="M8.319,150.389h.93v-.937h-.93Zm1.65,1.193H7.6a.467.467,0,0,1-.465-.469v-2.384a.467.467,0,0,1,.465-.469H9.969a.467.467,0,0,1,.465.469v2.384A.467.467,0,0,1,9.969,151.582Z" transform="translate(-4.634 -145.152)" fill="#27557d" stroke="#fff" stroke-miterlimit="10" stroke-width="0.25"/>
        <path id="Tracé_329" data-name="Tracé 329" d="M8.761,173.125a.594.594,0,0,1-.592-.6V151.066a.592.592,0,1,1,1.185,0v21.462a.594.594,0,0,1-.592.6" transform="translate(-4.612 -145.105)" fill="#27557d"/>
        <path id="Tracé_330" data-name="Tracé 330" d="M6.464,154H5.278a.6.6,0,0,1,0-1.193H6.464a.6.6,0,0,1,0,1.193" transform="translate(-4.686 -145.056)" fill="#27557d"/>
        <path id="Tracé_331" data-name="Tracé 331" d="M6.464,156.334H5.278a.6.6,0,0,1,0-1.193H6.464a.6.6,0,0,1,0,1.193" transform="translate(-4.686 -145.006)" fill="#27557d"/>
        <path id="Tracé_332" data-name="Tracé 332" d="M6.464,158.669H5.278a.6.6,0,0,1,0-1.193H6.464a.6.6,0,0,1,0,1.193" transform="translate(-4.686 -144.957)" fill="#27557d"/>
        <path id="Tracé_333" data-name="Tracé 333" d="M6.464,161H5.278a.6.6,0,0,1,0-1.193H6.464a.6.6,0,0,1,0,1.193" transform="translate(-4.686 -144.908)" fill="#27557d"/>
        <path id="Tracé_334" data-name="Tracé 334" d="M6.464,163.34H5.278a.6.6,0,0,1,0-1.193H6.464a.6.6,0,0,1,0,1.193" transform="translate(-4.686 -144.858)" fill="#27557d"/>
        <path id="Tracé_335" data-name="Tracé 335" d="M6.464,165.675H5.278a.6.6,0,0,1,0-1.193H6.464a.6.6,0,0,1,0,1.193" transform="translate(-4.686 -144.809)" fill="#27557d"/>
        <path id="Tracé_336" data-name="Tracé 336" d="M6.464,168.011H5.278a.6.6,0,0,1,0-1.193H6.464a.6.6,0,0,1,0,1.193" transform="translate(-4.686 -144.76)" fill="#27557d"/>
        <path id="Tracé_337" data-name="Tracé 337" d="M6.464,170.346H5.278a.6.6,0,0,1,0-1.193H6.464a.6.6,0,0,1,0,1.193" transform="translate(-4.686 -144.71)" fill="#27557d"/>
        <path id="Tracé_338" data-name="Tracé 338" d="M12.268,154H11.082a.6.6,0,0,1,0-1.193h1.186a.6.6,0,0,1,0,1.193" transform="translate(-4.563 -145.056)" fill="#27557d"/>
        <path id="Tracé_339" data-name="Tracé 339" d="M12.268,156.334H11.082a.6.6,0,0,1,0-1.193h1.186a.6.6,0,0,1,0,1.193" transform="translate(-4.563 -145.006)" fill="#27557d"/>
        <path id="Tracé_340" data-name="Tracé 340" d="M12.268,158.669H11.082a.6.6,0,0,1,0-1.193h1.186a.6.6,0,0,1,0,1.193" transform="translate(-4.563 -144.957)" fill="#27557d"/>
        <path id="Tracé_341" data-name="Tracé 341" d="M12.268,161H11.082a.6.6,0,0,1,0-1.193h1.186a.6.6,0,0,1,0,1.193" transform="translate(-4.563 -144.908)" fill="#27557d"/>
        <path id="Tracé_342" data-name="Tracé 342" d="M12.268,163.34H11.082a.6.6,0,0,1,0-1.193h1.186a.6.6,0,0,1,0,1.193" transform="translate(-4.563 -144.858)" fill="#27557d"/>
        <path id="Tracé_343" data-name="Tracé 343" d="M12.268,165.675H11.082a.6.6,0,0,1,0-1.193h1.186a.6.6,0,0,1,0,1.193" transform="translate(-4.563 -144.809)" fill="#27557d"/>
        <path id="Tracé_344" data-name="Tracé 344" d="M12.268,168.011H11.082a.6.6,0,0,1,0-1.193h1.186a.6.6,0,0,1,0,1.193" transform="translate(-4.563 -144.76)" fill="#27557d"/>
        <path id="Tracé_345" data-name="Tracé 345" d="M12.268,170.346H11.082a.6.6,0,0,1,0-1.193h1.186a.6.6,0,0,1,0,1.193" transform="translate(-4.563 -144.71)" fill="#27557d"/>
        <path id="Tracé_346" data-name="Tracé 346" d="M8.694,177.852v.681c.031-.227.062-.454.093-.681Zm.082,1.96a1.274,1.274,0,0,1-1.267-1.278v-1.788l2.453-.086.082,1.874a1.274,1.274,0,0,1-1.267,1.278" transform="translate(-4.626 -144.552)" fill="#27557d"/>
      </g>
    </g>
  </g>
</svg>
