<svg xmlns="http://www.w3.org/2000/svg" width="34.608" height="33.978" viewBox="0 0 34.608 33.978">
  <g id="Groupe_36" data-name="Groupe 36" transform="translate(-1120.582 -542.8)">
    <path id="Tracé_19" data-name="Tracé 19" d="M230.6,143.862a3.063,3.063,0,1,0-3.062,3.062,3.062,3.062,0,0,0,3.062-3.062" transform="translate(899.664 402)" fill="#27557d"/>
    <path id="Tracé_20" data-name="Tracé 20" d="M222.49,153.879l4.7,6.887s1.174,1.119.252,2.065-2.055-.774-2.055-.774-4.53-6.542-4.488-6.628c-.964-1.68-1.189-5.553,2.845-6.07,3.74-.043,4.662-.043,5.753,0a3.776,3.776,0,0,1,3.607,5.6c-.965,1.593-4.823,7.231-4.823,7.231s.419-.517-1.049-2.282c-.042-.043,4.11-6.069,4.11-6.069l-.42-.43-4,5.94-4.1-5.9Z" transform="translate(900.275 400.75)" fill="#27557d"/>
    <path id="Tracé_21" data-name="Tracé 21" d="M222.124,159.7l-1.55,7.119h4.864l-2.625,8.308s-.431,1.592.731,1.979a1.516,1.516,0,0,0,2.066-.731c.172-.689,3.1-9.555,3.1-9.555l4.691.044-1.549-7.36-3.142,4.605a1.83,1.83,0,0,1-1.895.99c-.947.043-1.763-1.162-2.409-2.2s-2.281-3.2-2.281-3.2" transform="translate(900.236 399.259)" fill="#27557d"/>
    <path id="Tracé_22" data-name="Tracé 22" d="M230.215,168.72,228.779,173l1.863,4.306s.58,1.74,2.016,1.008a1.49,1.49,0,0,0,.7-2.229c-.091-.306-3.146-7.36-3.146-7.36" transform="translate(899.034 397.909)" fill="#27557d"/>
    <path id="Tracé_23" data-name="Tracé 23" d="M250.555,169.165l1.636,3.468-2.483,5.113s-.58,1.74-2.016,1.008a1.489,1.489,0,0,1-.7-2.229c.091-.306,3.564-7.36,3.564-7.36" transform="translate(896.403 397.844)" fill="#27557d"/>
    <path id="Tracé_24" data-name="Tracé 24" d="M255.648,143.862a3.063,3.063,0,1,0-3.062,3.062,3.062,3.062,0,0,0,3.062-3.062" transform="translate(895.994 402)" fill="#27557d"/>
    <path id="Tracé_25" data-name="Tracé 25" d="M247.533,153.879l4.7,6.887s1.174,1.119.252,2.065-2.055-.774-2.055-.774-4.53-6.542-4.488-6.628c-.964-1.68-1.189-5.553,2.845-6.07,3.74-.043,4.662-.043,5.753,0a3.776,3.776,0,0,1,3.607,5.6c-.965,1.593-4.823,7.231-4.823,7.231s.419-.517-1.049-2.282c-.042-.043,4.11-6.069,4.11-6.069l-.42-.43-4,5.94-4.1-5.9Z" transform="translate(896.605 400.75)" fill="#27557d"/>
    <path id="Tracé_26" data-name="Tracé 26" d="M258.141,159.771l-3.323,4.969.809,1.866s1.971-3.661,2.323-4.505a2.631,2.631,0,0,0,.191-2.329" transform="translate(895.218 399.22)" fill="#27557d"/>
    <path id="Tracé_27" data-name="Tracé 27" d="M253.229,165.168l5.1,10.032a1.522,1.522,0,0,1-.458,2.147,1.5,1.5,0,0,1-2.111-.492L248.23,162s-.594-1.122-.347-1.475c0,0,2.072,2.919,2.425,3.517.457.74,1.355,1.871,2.921,1.127" transform="translate(896.243 399.11)" fill="#27557d"/>
    <line id="Ligne_2" data-name="Ligne 2" y2="33.7" transform="translate(1137.966 542.8)" fill="none" stroke="#fff" stroke-miterlimit="10" stroke-width="0.705"/>
  </g>
</svg>
